# xmcd
# 
# Track frame offsets:
#     182
#     10097
#     21925
#     30880
#     43830
#     54057
#     66340
#     75915
#     85507
#     95270
#     104270
#     113707
#     122972
#     133052
#     144320
#     151987
#     163640
#     173010
#     185982
#     199545
#     211762
#     221995
#     232602
#     245007
#     258995
#     269442
#     278800
# 
# Disc length: 3841
# 
# Revision: 1
# Processed by: cddbd v1.5.2PL0 Copyright (c) Steve Scherf et al.
# Submitted via: fre:ac v1.0.17
# 
DISCID=670eff1b
DTITLE=Jim Reeves - Welcome To My World, Part 5
DYEAR=0
DGENRE=Country
TTITLE0=Charmaine
TTITLE1=Mona Lisa
TTITLE2=Marie
TTITLE3=Goodnight Irene
TTITLE4=Linda
TTITLE5=Maria Elena
TTITLE6=My Mary
TTITLE7=Ramona
TTITLE8=Margie
TTITLE9=My Juanita
TTITLE10=Sweet Sue, Just You
TTITLE11=Overnight
TTITLE12=Blue Boy
TTITLE13=How Long Has It Been
TTITLE14=Teach Me How To Pray
TTITLE15=An Evening Prayer
TTITLE16=The Padre Of Old San Antone
TTITLE17=Suppertime
TTITLE18=It Is No Secret
TTITLE19=God Be With You
TTITLE20=A Beautiful Life
TTITLE21=In The Garden
TTITLE22=Precious Memories
TTITLE23=Whispering Hope
TTITLE24=The Flowers, The Sunset, The Trees
TTITLE25=I'd Like To Be
TTITLE26=Billy Bayou
EXTD=
EXTT0=
EXTT1=
EXTT2=
EXTT3=
EXTT4=
EXTT5=
EXTT6=
EXTT7=
EXTT8=
EXTT9=
EXTT10=
EXTT11=
EXTT12=
EXTT13=
EXTT14=
EXTT15=
EXTT16=
EXTT17=
EXTT18=
EXTT19=
EXTT20=
EXTT21=
EXTT22=
EXTT23=
EXTT24=
EXTT25=
EXTT26=
PLAYORDER=
